<svg enable-background="new 0 0 128 128" width="128" height="128" viewBox="0 0 128 128" xmlns="http://www.w3.org/2000/svg"><path clip-rule="evenodd" d="m44.3965759 17.931015c-7.0113029 1.8848686-13.977129 3.9349937-20.8916588 6.1486645-1.2769203.3941669-2.2154179 1.4846134-2.414999 2.8059978-4.0863304 29.8769913 5.3436642 51.6809731 16.590662 66.0406342 5.642662 7.2066574 11.7529945 12.5426559 16.8436584 16.0463257 2.5530014 1.7479935 4.7993317 3.0206604 6.5703278 3.8333282.8893356.4063339 1.6100006.6823349 2.1620026.8433304.2433968.0782471.4918671.1397324.7436676.1840057.0536652-.0076675.2913361-.0383301.7436676-.1763306.5519943-.168663 1.2726669-.444664 2.1619949-.8509979 1.7633286-.8126678 4.0249939-2.0853348 6.5703354-3.8333282 6.3834229-4.4787903 12.0608139-9.8874359 16.8436584-16.0463257 11.246994-14.3596725 20.6769867-36.1636543 16.5906601-66.0406494-.199585-1.3213844-1.1380768-2.411829-2.4150009-2.8059978-4.7993317-1.5333328-12.8953247-4.0326653-20.8916473-6.1486645-8.1726761-2.1543322-15.6936722-3.7643318-19.6036682-3.7643318s-11.4233284 1.6100073-19.6036606 3.7643394zm-1.9626655-7.4059954c7.9963302-2.1160001 16.4833259-4.0249996 21.5663261-4.0249996 5.075325 0 13.5699997 1.9089994 21.5663223 4.0249987 7.1322632 1.914938 14.2182465 3.9982929 21.2519913 6.2483292 4.0479965 1.2880001 7.0993271 4.7763309 7.6896667 9.0773296 4.3929977 32.1769867-5.7959976 56.0203171-18.1469879 71.7983017-5.263298 6.7712631-11.5120926 12.7151108-18.5379944 17.6333313-2.4430084 1.7112503-5.0255432 3.2140884-7.7203293 4.4926682-2.0700073.9506607-4.2779999 1.7249985-6.1026688 1.7249985-1.8246727 0-4.0326653-.7743301-6.1026649-1.7249985-2.6953659-1.2774811-5.2779922-2.7803802-7.7203293-4.4926682-7.0231133-4.9189072-13.2692795-10.8627167-18.5303268-17.6333313-12.3663272-15.7779846-22.5476579-39.6213112-18.1546602-71.7983017.5994625-4.2549496 3.5911551-7.7865181 7.6896639-9.0773277 7.0337639-2.2499771 14.1197433-4.3333397 21.2519913-6.2483302z" fill-rule="evenodd"/><path d="m48.3296547 52.8803711-7.5055199 7.5055199c-6.4096298 6.4096336-6.4096298 16.8016853 0 23.2113152s16.8016891 6.4096298 23.2113113 0l10.0000687-10.0055389c6.4086304-6.4095459 6.4078903-16.800724-.0016556-23.2093506-1.3167191-1.3165359-2.8478775-2.3993912-4.5279083-3.2022018l-3.205719 3.2057076c-.3254852.3259964-.6085434.691761-.842453 1.0886307 5.8073349 1.6694832 9.1617279 7.7306442 7.4922485 13.5379829-.5125198 1.7827759-1.4698868 3.405983-2.7821503 4.7170639l-9.9945984 10.0000687c-4.2750969 4.2750931-11.2064056 4.2750931-15.4815025 0-4.2751007-4.2751007-4.2751007-11.2064056 0-15.4815063l4.3381042-4.332634c-.6120644-2.2936325-.8485374-4.6712685-.700222-7.0405273zm10.2352982-10.2298279c-6.4086304 6.4095383-6.4078903 16.8007202.0016518 23.2093506 1.3167191 1.3165283 2.8478851 2.3993912 4.5279198 3.2022018l4.2396355-4.2451019c-5.8362389-1.5654488-9.2983932-7.5657082-7.7329407-13.401947.4973526-1.8542175 1.473835-3.5449257 2.8313751-4.9023323l9.9945984-10.0000687c4.2750931-4.2751007 11.2064056-4.2751007 15.4815063 0 4.2750931 4.2750969 4.2750931 11.2064056 0 15.4815063l-4.3381119 4.3326302c.6127014 2.2976074.8479309 4.6772766.7002258 7.0405273l7.5055237-7.5055199c6.4096222-6.4096298 6.4096222-16.8016891 0-23.2113152-6.4096298-6.4096298-16.8016891-6.4096298-23.211319 0z"/></svg>
